PathFileType	4	(X/Y/Z)	s04c0203.trc
DataRate	CameraRate	NumFrames	NumMarkers	Units	OrigDataRate	OrigDataStartFrame	OrigNumFrames
200	200	4	50	mm	200	1750	2000
Frame#	Time	racr			lacr			c7			jug			rlel			rdr			llel			ldr			s2			lic			ric			lasi			rasi			rpsi			lpsi			rgt			lgt			rth1			rth2			rth3			rth4			rlfc			rmfc			rsh1			rsh2			rsh3			rsh4			rlmal			rmmal			rcal			rtoe			rmt5			lth1			lth2			lth4			lth3			llfc			lmfc			lsh1			lsh2			lsh3			lsh4			llmal			lmmal			lcal			ltoe			lmt5			SBIKE			LBIKE			RBIKE			
		X1	Y1	Z1	X2	Y2	Z2	X3	Y3	Z3	X4	Y4	Z4	X5	Y5	Z5	X6	Y6	Z6	X7	Y7	Z7	X8	Y8	Z8	X9	Y9	Z9	X10	Y10	Z10	X11	Y11	Z11	X12	Y12	Z12	X13	Y13	Z13	X14	Y14	Z14	X15	Y15	Z15	X16	Y16	Z16	X17	Y17	Z17	X18	Y18	Z18	X19	Y19	Z19	X20	Y20	Z20	X21	Y21	Z21	X22	Y22	Z22	X23	Y23	Z23	X24	Y24	Z24	X25	Y25	Z25	X26	Y26	Z26	X27	Y27	Z27	X28	Y28	Z28	X29	Y29	Z29	X30	Y30	Z30	X31	Y31	Z31	X32	Y32	Z32	X33	Y33	Z33	X34	Y34	Z34	X35	Y35	Z35	X36	Y36	Z36	X37	Y37	Z37	X38	Y38	Z38	X39	Y39	Z39	X40	Y40	Z40	X41	Y41	Z41	X42	Y42	Z42	X43	Y43	Z43	X44	Y44	Z44	X45	Y45	Z45	X46	Y46	Z46	X47	Y47	Z47	X48	Y48	Z48	X49	Y49	Z49	X50	Y50	Z50	
1750	8.7500	545.154372	1318.853820	-152.435651	531.308127	1325.931928	-427.845215	521.537729	1382.590030	-292.540989	473.145178	1231.745904	-288.245754	445.125971	1056.999710	13.796875	684.108148	937.002424	-102.692901	468.013472	1098.180234	-607.119837	675.450603	941.220311	-495.123818	-58.093043	1180.502365	-289.841248	87.908179	1201.368285	-442.580001	95.584401	1181.407922	-122.970838	134.658232	1166.481591	-411.806175	141.399156	1135.273087	-166.727988	-25.859161	1219.107349	-242.742764	-29.800268	1231.383885	-319.724435	45.832029	1115.778653	-112.654864	70.093816	1140.600350	-481.380733	130.209033	971.459418	-82.350075	190.619737	906.610569	-84.804699	212.793850	824.086112	-88.596869	220.827688	924.657868	-98.033762	269.844368	689.625297	-110.832249	254.636128	672.778098	-224.690039	198.171626	585.927671	-88.292139	172.363849	499.898296	-106.309069	106.968388	444.131613	-116.492663	201.273733	487.097370	-128.431010	38.211305	306.831796	-126.359882	65.808886	310.049964	-210.715638	-34.403378	294.929163	-170.732789	245.577778	186.128864	-158.710938	173.311869	182.381775	-104.817580	138.362153	1088.977568	-483.139922	224.394547	1081.475337	-483.962998	236.180375	1112.986827	-469.534570	297.446815	1030.900806	-491.315411	438.970983	954.899073	-470.432261	471.407652	936.806403	-357.159110	405.014608	849.817952	-487.653156	386.554289	765.942914	-469.006665	327.521967	699.679507	-464.898167	413.020850	756.222906	-441.247406	256.047610	568.369842	-453.354326	255.739028	578.047881	-368.210570	171.592176	567.187911	-411.993573	455.740295	464.954994	-418.018492	377.078583	449.853299	-479.378827	-184.554636	930.159377	-286.451153	-17.010414	79.844955	-485.837501	-17.363653	79.418276	-84.736261	
1751	8.7550	543.088586	1320.470327	-152.127551	530.112898	1327.774794	-427.838242	519.865991	1384.536172	-292.450685	471.491378	1233.667172	-288.660390	444.095244	1056.949248	12.687096	683.997150	937.175999	-102.642875	468.240715	1098.972384	-606.462671	675.447698	941.224286	-494.851246	-58.788980	1180.207046	-290.470446	87.486153	1200.796483	-443.070492	94.392342	1181.547315	-123.478729	133.632751	1164.995382	-410.525001	140.636145	1135.553225	-166.987135	-27.119789	1219.019728	-244.289554	-30.292778	1231.072812	-320.971865	45.112141	1115.964614	-113.029218	69.033919	1138.163138	-480.676838	132.459973	973.213311	-83.070110	194.136146	909.686270	-85.338085	218.125760	827.633565	-88.428704	223.926173	928.124886	-98.985051	276.286682	693.479864	-110.342653	261.024598	676.942065	-224.240921	202.045389	591.570402	-88.045528	173.888795	506.311750	-106.122254	106.992736	452.306940	-116.450890	202.575700	492.800853	-128.300229	34.651557	317.088322	-126.579154	62.716325	319.266433	-210.903993	-38.368173	307.369220	-171.309439	238.558519	189.326299	-158.567907	165.966351	188.534097	-105.176447	138.010195	1085.488997	-483.373900	223.968660	1076.533297	-483.964703	236.198298	1108.060697	-469.929622	296.200062	1024.799290	-490.555999	436.532430	946.393567	-469.091949	468.947165	928.527349	-356.191249	404.614773	839.927219	-488.034677	386.928418	755.911697	-468.699986	328.744802	688.846834	-464.711530	413.260354	746.804410	-441.075225	258.950098	557.147235	-453.585634	258.157920	566.656375	-368.373879	174.481452	552.753244	-412.466402	462.247208	462.193337	-418.297251	384.447887	443.648098	-479.724594	-184.560108	930.144509	-286.587585	-17.006231	79.817055	-485.847208	-17.331700	79.423337	-84.733201	
1752	8.7600	541.038752	1322.193595	-151.657238	528.882248	1329.751989	-427.735131	518.141354	1386.521414	-292.200793	469.943365	1235.579411	-288.871867	443.093872	1056.983424	11.460781	683.743054	937.358149	-102.678129	468.395515	1099.902211	-605.576335	675.459229	941.298876	-494.666471	-59.378613	1179.495883	-291.077518	86.819477	1199.836772	-443.365039	93.337364	1181.604461	-123.975239	132.461896	1163.100107	-408.848037	139.853446	1135.690307	-167.300742	-27.834585	1218.414434	-245.152148	-30.900846	1230.672006	-321.860514	44.481583	1115.839516	-113.313165	68.702251	1135.524407	-480.672107	134.697111	975.034918	-83.898848	197.680126	912.764363	-85.985824	223.342485	831.254249	-88.431985	226.925134	931.523709	-100.043755	282.648989	697.435133	-109.894961	267.342556	681.140552	-223.853663	205.949537	597.332044	-87.862330	175.596925	512.951458	-105.970276	107.236277	460.709659	-116.466363	203.949628	498.634939	-128.158930	31.490670	327.665413	-126.871553	59.603554	328.973720	-211.027574	-41.673300	319.972180	-171.800853	231.951683	193.318856	-158.329140	159.025044	195.121166	-105.500097	137.652778	1081.507010	-483.423967	223.415365	1071.146570	-483.974597	236.205211	1102.566326	-470.343452	294.941007	1018.062552	-489.471461	434.530872	937.492140	-467.418623	465.980206	919.996587	-355.048102	403.895408	829.094403	-488.163126	387.119146	745.236986	-468.287216	329.846000	677.321879	-464.494279	413.374304	736.574617	-440.378816	261.562600	545.063491	-453.632062	260.525359	554.554532	-368.242929	177.688598	538.003782	-413.048010	468.085914	458.692076	-418.500800	391.272159	436.833423	-480.017939	-184.578712	930.104100	-286.657008	-17.026680	79.758775	-485.858663	-17.341863	79.424435	-84.744780	
1753	8.7650	538.913767	1324.020577	-151.052154	527.686737	1331.869902	-427.551249	516.416639	1388.578802	-291.766396	468.391207	1237.566161	-288.913742	442.184535	1057.142403	10.191828	683.435878	937.578789	-102.844245	468.448763	1100.900402	-604.394634	675.480085	941.421281	-494.512188	-60.279101	1178.468272	-293.531433	86.342156	1198.797814	-443.882566	92.437079	1181.545278	-124.471491	131.138132	1160.773460	-406.754404	139.183398	1135.841996	-167.617559	-28.452330	1217.635876	-245.926034	-31.954149	1229.347163	-322.267200	44.013996	1115.703949	-113.714770	68.336214	1132.336147	-480.628042	137.010115	977.024130	-84.819546	201.146421	915.910081	-86.919483	228.467116	834.883928	-88.488907	229.983487	935.063085	-101.946735	288.978486	701.497031	-109.414983	273.595804	685.306937	-223.493860	209.749438	603.296725	-87.704081	177.327161	519.619586	-105.810679	107.667911	469.305045	-116.524829	205.360472	504.623490	-128.099364	28.718678	338.309118	-127.441028	56.992664	338.711951	-211.252622	-44.679689	332.880143	-172.584139	225.579734	198.062922	-158.092822	152.455016	202.130029	-105.852914	137.227850	1077.083164	-483.480684	222.810613	1065.389584	-484.059638	236.336657	1096.771142	-470.879467	293.354959	1010.881959	-489.175705	430.200988	927.071388	-467.813223	463.208537	909.814699	-354.587456	402.900204	817.716796	-487.935945	387.162226	733.881980	-467.671542	330.923002	665.123391	-463.978128	413.453397	725.681128	-439.641028	264.250691	532.363171	-453.535438	262.952331	542.057048	-368.112875	180.576919	522.125909	-412.790242	473.929983	454.282987	-418.888109	397.743579	429.403189	-480.135208	-184.597090	930.052846	-286.683486	-17.038451	79.703814	-485.862659	-17.362433	79.388461	-84.754107	
